Coordinates
version=1
nRows=16
nColumns=28
inDegrees=yes

Units are S.I. units (second, meters, Newtons, ...)
Angles are in degrees.

endheader
time	pelvis_tilt	pelvis_list	pelvis_rotation	pelvis_tx	pelvis_ty	pelvis_tz	hip_flexion_r	hip_adduction_r	hip_rotation_r	knee_angle_r	ankle_angle_r	subtalar_angle_r	mtp_angle_r	hip_flexion_l	hip_adduction_l	hip_rotation_l	knee_angle_l	socket_flexion	socket_adduction	socket_rotation	socket_tx	socket_ty	socket_tz	foot_flex	lumbar_extension	lumbar_bending	lumbar_rotation
      0.96666667	      8.59327455	      2.49117732	     -4.79428342	      0.39317444	      1.03398468	      0.28484745	      0.60748772	      1.79359122	      0.65097790	    -24.32084036	      4.94311635	     -5.50197635	     33.42711147	     -2.34091614	      2.15062618	     -1.92208104	    -54.39734250	      0.00000000	      0.00000000	      0.00000000	      0.00000000	      0.00889201	      0.00000000	      4.93761296	    -16.26058178	     -3.07661156	      9.95074848
      0.97083333	      8.54093809	      2.80985839	     -5.20776855	      0.39798953	      1.03484407	      0.28545000	      0.33043524	      1.27090543	      0.55411378	    -24.10782513	      4.93789201	     -3.66793706	     34.54642712	     -1.79571123	      2.49412583	     -1.99553132	    -53.92549995	      0.00000000	      0.00000000	      0.00000000	      0.00000000	      0.00915514	      0.00000000	      4.87459799	    -16.08368638	     -3.61455746	     10.83873397
      0.97500000	      8.52575271	      2.90104196	     -5.43559921	      0.40241978	      1.03573323	      0.28591608	     -0.04986954	      1.09237230	      0.55760943	    -23.81509886	      4.87388528	     -3.55367241	     34.57937871	     -1.25048217	      2.56186926	     -1.91153956	    -53.53228537	      0.00000000	      0.00000000	      0.00000000	      0.00000000	      0.00920910	      0.00000000	      4.90326451	    -16.07064498	     -3.77077486	     10.84212063
      0.97916667	      8.54011811	      2.89751473	     -5.66970331	      0.40639656	      1.03650141	      0.28635363	     -0.32121930	      1.01549277	      0.51135014	    -23.77378436	      4.85897057	     -3.51649160	     34.57883287	     -0.69966101	      2.52451423	     -1.83276222	    -53.17494545	      0.00000000	      0.00000000	      0.00000000	      0.00000000	      0.00909492	      0.00000000	      4.92717373	    -16.20095271	     -3.81387958	     10.85477188
      0.98333333	      8.46795311	      3.07393688	     -5.89693153	      0.41121762	      1.03738227	      0.28687301	     -0.78158303	      0.76657047	      0.67114173	    -23.21921224	      4.70908762	     -3.21757114	     34.64156590	     -0.17435598	      2.70720276	     -1.66038493	    -52.59345179	      0.00000000	      0.00000000	      0.00000000	      0.00000000	      0.00924027	      0.00000000	      4.89479479	    -16.01849465	     -4.09726878	     10.98456319
      0.98750000	      8.41991842	      3.15094989	     -6.15908939	      0.41556569	      1.03812681	      0.28736683	     -1.11576667	      0.60886560	      0.75617216	    -22.92533352	      4.51208997	     -2.85056101	     34.75526781	      0.35733899	      2.77495561	     -1.54843133	    -52.04549326	      0.00000000	      0.00000000	      0.00000000	      0.00000000	      0.00921829	      0.00000000	      4.84163680	    -15.97873406	     -4.26758727	     11.19735222
      0.99166667	      8.36608170	      3.20965224	     -6.41310261	      0.41996820	      1.03880577	      0.28785512	     -1.43144596	      0.46350866	      0.80708756	    -22.65929887	      4.39662187	     -2.52005497	     34.87990114	      0.86268141	      2.81496151	     -1.43468581	    -51.43562673	      0.00000000	      0.00000000	      0.00000000	      0.00000000	      0.00912755	      0.00000000	      4.84393078	    -15.93081905	     -4.39223334	     11.40360335
      0.99583333	      8.38404048	      3.17838571	     -6.66543131	      0.42372345	      1.03944346	      0.28827519	     -1.67906101	      0.40813160	      0.75083666	    -22.64171511	      4.38732776	     -2.46884084	     34.88985095	      1.42771362	      2.75821997	     -1.34321310	    -51.02539021	      0.00000000	      0.00000000	      0.00000000	      0.00000000	      0.00933281	      0.00000000	      4.87009761	    -16.08154483	     -4.42818255	     11.43471944
      1.00000000	      8.25536133	      3.21141649	     -7.07349832	      0.42857774	      1.03995535	      0.28886200	     -1.97294309	      0.25054148	      0.88502934	    -22.24869846	      4.03756288	     -1.24599952	     35.56855568	      1.83497006	      2.79466679	     -1.29200522	    -50.15269145	      0.00000000	      0.00000000	      0.00000000	      0.00000000	      0.00883459	      0.00000000	      4.78741431	    -15.82258029	     -4.59460881	     12.24910148
      1.00416667	      8.20632057	      3.26353341	     -7.28799773	      0.43283241	      1.04049300	      0.28926848	     -2.27180925	      0.11342270	      0.90007975	    -22.03139128	      4.08175001	     -1.11484609	     35.67917738	      2.33127120	      2.84714227	     -1.07015246	    -49.47667386	      0.00000000	      0.00000000	      0.00000000	      0.00000000	      0.00881480	      0.00000000	      4.75309094	    -15.79143235	     -4.72328976	     12.28197315
      1.00833333	      8.21315169	      3.23877743	     -7.51162405	      0.43650530	      1.04102304	      0.28970138	     -2.50531568	      0.05964697	      0.85321479	    -22.00894330	      4.08157523	     -1.08314474	     35.68453520	      2.90290358	      2.78102268	     -0.95898227	    -49.00046901	      0.00000000	      0.00000000	      0.00000000	      0.00000000	      0.00922814	      0.00000000	      4.79032100	    -15.95345883	     -4.75989756	     12.29430754
      1.01250000	      8.05994269	      3.28174210	     -7.73025228	      0.44137278	      1.04139730	      0.29010204	     -2.84642946	     -0.04666974	      1.00873244	    -21.54412128	      3.98358909	     -0.79460019	     35.81304734	      3.29969359	      2.84176713	     -0.62490867	    -48.00693222	      0.00000000	      0.00000000	      0.00000000	      0.00000000	      0.00865866	      0.00000000	      4.69020886	    -15.68546647	     -4.85865123	     12.44515994
      1.01666667	      7.96938353	      3.25062282	     -7.95641349	      0.44559514	      1.04174555	      0.29050699	     -3.11412010	     -0.07849778	      1.10080245	    -21.30435809	      3.87801950	     -0.56328705	     35.92213061	      3.77148671	      2.79725894	     -0.37097025	    -47.21158036	      0.00000000	      0.00000000	      0.00000000	      0.00000000	      0.00850557	      0.00000000	      4.65433183	    -15.61777875	     -4.88414962	     12.59107859
      1.02083333	      7.85294001	      3.19454257	     -8.18043300	      0.44991591	      1.04204364	      0.29091829	     -3.38787839	     -0.08721056	      1.17946142	    -20.99992057	      3.75661669	     -0.28925952	     36.06423448	      4.24407795	      2.70768312	     -0.16182364	    -46.38027943	      0.00000000	      0.00000000	      0.00000000	      0.00000000	      0.00830158	      0.00000000	      4.56937076	    -15.51374591	     -4.88262704	     12.78775538
      1.02500000	      7.84820385	      3.15145319	     -8.38347931	      0.45343672	      1.04238005	      0.29136365	     -3.60791538	     -0.11590742	      1.15812734	    -20.96099786	      3.74086868	     -0.24028724	     36.09119047	      4.80955066	      2.60778536	     -0.02726983	    -45.83269322	      0.00000000	      0.00000000	      0.00000000	      0.00000000	      0.00882125	      0.00000000	      4.61051283	    -15.67705916	     -4.91729023	     12.82452318
      1.02916667	      7.65760125	      3.08478672	     -8.59253027	      0.45815337	      1.04244645	      0.29174303	     -3.87385258	     -0.09057836	      1.32330995	    -20.58667885	      3.63737497	      0.02079996	     36.21410243	      5.17581188	      2.53442547	      0.36779262	    -44.71898266	      0.00000000	      0.00000000	      0.00000000	      0.00000000	      0.00800597	      0.00000000	      4.49586500	    -15.41254183	     -4.87408115	     13.01994113
